<?xml version="1.0" standalone="no"?>
<!DOCTYPE svg PUBLIC "-//W3C//DTD SVG 20010904//EN"
 "http://www.w3.org/TR/2001/REC-SVG-20010904/DTD/svg10.dtd">
<svg version="1.0" xmlns="http://www.w3.org/2000/svg"
 width="1000.000000pt" height="1000.000000pt" viewBox="0 0 1000.000000 1000.000000"
 preserveAspectRatio="xMidYMid meet">
<metadata>
Created by potrace 1.11, written by Peter Selinger 2001-2013
</metadata>
<g transform="translate(0.000000,1000.000000) scale(0.100000,-0.100000)"
fill="#000000" stroke="none">
<path d="M4748 9925 c-2 -1 -43 -6 -93 -9 -138 -10 -181 -15 -269 -27 -45 -6
-90 -12 -101 -14 -50 -6 -120 -18 -235 -42 -69 -13 -133 -26 -143 -29 -10 -2
-27 -6 -37 -9 -10 -3 -28 -8 -39 -10 -76 -15 -447 -128 -506 -154 -28 -13 -58
-24 -73 -27 -7 -1 -33 -12 -58 -23 -24 -12 -46 -21 -50 -21 -3 0 -30 -11 -60
-25 -30 -14 -57 -25 -60 -25 -13 0 -372 -184 -470 -240 -200 -116 -556 -363
-659 -456 -12 -11 -50 -44 -85 -74 -186 -156 -409 -383 -591 -600 -284 -340
-579 -825 -736 -1210 -19 -47 -40 -98 -48 -115 -63 -144 -193 -565 -229 -745
-54 -272 -62 -319 -82 -495 -3 -33 -8 -69 -10 -80 -25 -136 -25 -773 1 -1000
10 -90 34 -270 41 -305 2 -14 7 -38 10 -55 3 -16 12 -64 20 -105 8 -41 17 -86
20 -100 39 -202 183 -648 280 -868 122 -278 256 -528 386 -725 21 -32 38 -62
38 -67 0 -5 4 -10 8 -12 4 -1 36 -43 70 -93 51 -76 180 -243 265 -347 148
-178 413 -440 624 -617 320 -266 747 -532 1128 -701 28 -12 64 -28 80 -36 118
-52 434 -165 560 -200 218 -59 366 -93 518 -119 134 -23 152 -26 347 -49 219
-27 849 -28 1011 -1 13 2 51 6 84 10 51 5 160 21 280 41 490 80 1055 281 1530
544 121 67 378 227 418 260 7 5 57 42 112 82 55 40 102 75 105 78 3 3 28 23
55 45 300 237 622 571 864 895 221 296 376 559 554 940 91 197 214 547 272
780 26 106 55 232 60 260 3 19 8 46 10 60 12 58 15 77 21 120 3 25 8 54 10 64
6 30 23 166 28 216 17 170 21 276 21 510 0 342 -12 497 -56 770 -18 108 -27
161 -55 300 -28 141 -110 418 -179 608 -142 390 -288 679 -545 1077 -54 83
-236 324 -302 401 -14 16 -57 65 -94 109 -101 116 -334 347 -470 465 -461 397
-990 705 -1571 916 -80 29 -340 110 -383 119 -8 2 -62 15 -120 29 -58 14 -121
28 -140 31 -19 3 -51 10 -70 15 -19 5 -53 11 -75 15 -22 3 -67 10 -100 15 -33
5 -78 12 -100 15 -22 3 -53 7 -70 10 -16 2 -64 7 -105 10 -41 4 -93 9 -115 12
-44 5 -641 13 -647 8z"/>
</g>
</svg>
