<?xml version="1.0" standalone="no"?>
<!DOCTYPE svg PUBLIC "-//W3C//DTD SVG 20010904//EN"
 "http://www.w3.org/TR/2001/REC-SVG-20010904/DTD/svg10.dtd">
<svg version="1.0" xmlns="http://www.w3.org/2000/svg"
 width="700.000000pt" height="700.000000pt" viewBox="0 0 700.000000 700.000000"
 preserveAspectRatio="xMidYMid meet">
<metadata>
Created by potrace 1.11, written by Peter Selinger 2001-2013
</metadata>
<g transform="translate(0.000000,700.000000) scale(0.100000,-0.100000)"
fill="#000000" stroke="none">
<path d="M3278 6945 c-2 -2 -34 -6 -73 -9 -74 -6 -127 -12 -185 -22 -19 -3
-44 -7 -55 -9 -104 -16 -201 -37 -330 -70 -390 -103 -736 -261 -1075 -493 -69
-47 -130 -90 -136 -96 -6 -6 -29 -24 -50 -41 -97 -76 -199 -168 -319 -290
-369 -373 -635 -803 -806 -1303 -34 -99 -84 -272 -95 -327 -2 -11 -10 -51 -18
-90 -17 -77 -32 -166 -41 -235 -3 -25 -8 -56 -10 -70 -11 -59 -16 -189 -16
-390 1 -241 8 -367 26 -470 1 -8 6 -35 10 -60 53 -347 190 -765 349 -1065 48
-91 149 -265 168 -290 4 -5 47 -64 94 -130 131 -182 186 -247 359 -421 257
-259 528 -458 848 -624 314 -163 699 -294 987 -336 19 -3 42 -7 50 -9 8 -2 38
-7 65 -11 28 -3 59 -8 70 -10 132 -25 710 -24 835 1 14 3 48 8 75 11 200 23
578 123 788 210 95 38 94 38 222 99 175 83 362 194 520 308 69 50 84 62 181
142 140 115 335 309 437 435 34 41 64 77 67 80 15 15 104 136 157 215 176 265
312 541 411 840 37 111 88 296 98 355 2 14 11 57 19 95 8 39 17 95 21 125 3
30 7 57 9 60 27 43 26 799 0 900 -2 8 -6 35 -9 60 -8 57 -10 69 -40 210 -63
296 -142 521 -281 805 -83 168 -223 405 -291 490 -14 17 -28 35 -32 40 -140
191 -310 376 -487 530 -44 39 -82 73 -85 76 -3 3 -48 38 -100 77 -52 39 -99
75 -105 79 -18 15 -106 73 -111 73 -2 0 -26 15 -52 33 -69 48 -270 157 -402
217 -221 101 -509 196 -710 234 -14 2 -45 9 -70 14 -25 6 -69 13 -99 17 -30 4
-61 8 -70 10 -52 9 -104 16 -166 21 -77 6 -542 14 -547 9z m-898 -1549 c60
-13 116 -30 125 -37 5 -5 15 -9 22 -9 8 0 53 -19 101 -43 217 -107 351 -255
517 -569 32 -61 32 -60 50 117 23 221 100 424 183 484 112 79 291 69 400 -24
41 -34 98 -118 156 -227 50 -93 196 -432 196 -453 0 -8 5 -17 10 -20 6 -3 10
-13 10 -21 0 -28 62 -175 72 -172 19 7 60 151 72 249 5 43 97 312 126 370 26
50 111 168 137 189 121 98 192 122 363 124 141 1 159 -4 261 -70 76 -50 117
-95 164 -179 31 -55 87 -206 99 -265 2 -14 9 -48 15 -77 6 -29 13 -74 17 -100
3 -26 7 -55 9 -63 3 -16 13 -128 20 -220 2 -30 7 -190 10 -355 4 -268 11 -404
19 -413 2 -1 57 -4 122 -6 138 -5 151 -8 276 -71 284 -144 491 -369 606 -660
27 -70 36 -99 59 -190 11 -44 9 -184 -4 -238 -38 -165 -151 -288 -312 -337
-80 -25 -128 -25 -220 0 -126 35 -215 84 -291 160 -166 166 -291 420 -386 790
-45 178 -53 193 -107 219 -38 18 -44 25 -41 49 6 56 15 92 35 137 19 44 20 60
15 233 -4 103 -8 277 -11 387 -5 206 -13 413 -20 475 -7 71 -16 146 -20 175
-13 105 -83 321 -129 399 -14 25 -42 54 -62 66 -102 64 -281 -50 -380 -242
-50 -98 -177 -532 -198 -680 -3 -21 -10 -58 -16 -82 -5 -24 -12 -75 -16 -112
-3 -38 -8 -80 -10 -94 -5 -31 -5 -453 0 -535 3 -33 7 -117 11 -186 3 -70 8
-137 10 -150 2 -13 6 -53 10 -89 4 -36 8 -78 11 -95 2 -16 6 -72 9 -123 7
-150 -14 -168 -140 -120 -97 37 -131 75 -139 159 -13 119 -15 154 -22 279 -9
181 -6 147 -49 505 -8 65 -14 113 -20 150 -3 17 -7 52 -10 78 -3 26 -23 130
-45 230 -21 100 -42 197 -45 216 -3 19 -8 37 -10 41 -2 3 -6 18 -8 31 -10 55
-81 259 -147 423 -51 128 -171 365 -201 397 -35 38 -54 30 -92 -39 -44 -80
-73 -205 -111 -477 -3 -16 -8 -66 -11 -110 -4 -44 -9 -93 -11 -110 -9 -66 -18
-299 -18 -447 0 -177 1 -180 80 -220 56 -28 116 -85 139 -134 15 -30 19 -61
19 -140 0 -89 -4 -112 -34 -195 -18 -52 -43 -110 -54 -129 -62 -102 -68 -123
-61 -227 3 -54 7 -109 10 -123 3 -14 7 -54 10 -90 3 -36 9 -92 12 -125 11
-105 7 -213 -8 -231 -28 -34 -59 -36 -128 -8 -36 15 -76 37 -88 50 -22 24 -37
84 -48 189 -9 85 -15 119 -24 128 -8 8 -42 -16 -161 -113 -96 -78 -249 -182
-370 -251 -243 -139 -472 -219 -750 -262 -85 -13 -487 -15 -540 -3 -14 3 -41
9 -60 12 -49 9 -192 48 -278 78 -108 36 -236 112 -308 183 -175 170 -239 360
-239 703 1 207 4 242 46 455 38 188 35 179 55 239 114 348 315 733 494 947
128 153 294 317 400 397 104 77 257 157 384 202 77 27 102 33 171 46 16 3 32
7 34 10 6 5 248 -3 281 -10z m1895 -3140 c72 -3 139 -8 150 -10 11 -2 40 -7
65 -11 123 -19 310 -81 310 -103 0 -4 3 -43 6 -87 6 -76 5 -81 -19 -104 -29
-27 -44 -26 -172 7 -162 42 -198 45 -540 46 -262 0 -427 -6 -540 -19 -49 -6
-103 -13 -175 -20 -110 -12 -108 -11 -340 -66 -96 -22 -218 -57 -270 -77 -96
-36 -200 -94 -200 -111 0 -5 -9 -13 -21 -16 -29 -9 -45 16 -63 100 -20 88 -23
150 -7 168 6 8 44 30 84 49 193 93 533 180 867 223 25 3 63 8 85 12 54 9 78
10 240 19 77 3 141 7 142 8 4 3 282 -2 398 -8z"/>
<path d="M2100 5200 c-89 -17 -184 -82 -309 -210 -115 -118 -177 -233 -208
-389 -23 -115 -22 -404 1 -551 9 -58 19 -121 21 -140 8 -48 35 -120 46 -120
49 0 214 433 255 670 2 14 6 34 9 46 2 11 7 65 10 120 15 265 22 275 188 268
55 -2 107 -10 114 -16 14 -12 14 -33 -2 -313 -2 -27 -4 -225 -5 -438 -3 -424
-1 -439 47 -382 45 54 189 278 227 353 94 186 129 320 130 492 0 68 -4 113
-20 222 -15 103 -174 285 -309 353 -75 39 -129 48 -195 35z"/>
<path d="M2874 4740 c18 -131 16 -283 -4 -375 -36 -163 -71 -257 -148 -397
-17 -32 -27 -60 -22 -63 9 -5 98 3 111 11 3 2 55 6 115 9 131 7 182 13 195 21
6 3 8 22 5 42 -3 21 -8 55 -12 77 -11 79 -57 272 -91 385 -40 130 -117 313
-140 332 -14 11 -15 7 -9 -42z"/>
<path d="M1247 4588 c-99 -121 -275 -455 -355 -673 -35 -97 -85 -263 -98 -328
-38 -196 -46 -260 -49 -433 -6 -308 56 -506 204 -655 118 -118 227 -171 408
-202 114 -19 403 -15 533 8 14 3 42 7 63 11 20 3 92 21 160 40 307 87 671 323
961 622 110 113 108 108 91 302 -11 128 -15 186 -30 429 -2 38 -9 68 -17 73
-7 4 -49 8 -93 7 -117 -3 -235 -42 -404 -135 -165 -91 -335 -223 -368 -287
-12 -24 -16 -81 -18 -286 -2 -141 -7 -278 -10 -306 -3 -27 -7 -66 -9 -85 -13
-122 -39 -177 -89 -182 -49 -5 -169 20 -196 40 -16 12 -34 46 -51 98 -37 110
-82 200 -164 332 -39 62 -76 120 -81 130 -44 73 -98 152 -106 152 -6 0 -40
-16 -78 -35 -106 -55 -196 -45 -300 34 l-23 18 93 61 c109 70 150 99 187 128
l26 22 -46 163 c-53 183 -72 274 -91 429 -14 108 -15 336 -3 473 5 49 4 77 -3
77 -5 0 -25 -19 -44 -42z"/>
<path d="M1840 3583 c-46 -65 -85 -125 -87 -133 -4 -17 148 -305 177 -334 18
-19 19 -18 25 18 13 67 -1 136 -34 170 l-30 31 29 50 c30 49 30 51 26 173 -2
68 -8 128 -14 134 -6 6 -38 -30 -92 -109z"/>
<path d="M5655 3441 c-71 -18 -106 -54 -99 -104 3 -18 11 -66 20 -107 8 -41
16 -84 18 -95 13 -65 55 -210 98 -340 72 -214 234 -462 332 -509 73 -35 155
-9 225 70 64 73 74 106 75 259 1 122 -4 149 -50 273 -79 213 -197 368 -364
477 -109 72 -183 94 -255 76z"/>
</g>
</svg>
